# xmcd CD database file
#
# Track frame offsets:
#	150
#	17938
#	35476
#	48277
#	60924
#
# Disc length: 1102 seconds
#
# Revision: 0
# Processed by: cddbd v1.5.2PL0 Copyright (c) Steve Scherf et al.
# Submitted via: CDex 1.51
#
DISCID=36044c05
DTITLE=Jim Brickman - American Themes
DYEAR=2007
DGENRE=New Age
TTITLE0=America The Beautiful
TTITLE1=Battle Hymn Of The Republic
TTITLE2=My Country Tis Of Thee
TTITLE3=Star Spangled Banner
TTITLE4=God Bless America
EXTD=YEAR: 2007
EXTT0=
EXTT1=
EXTT2=
EXTT3=
EXTT4=
PLAYORDER=
